<?xml version="1.0" standalone="no"?>
<!DOCTYPE svg PUBLIC "-//W3C//DTD SVG 20010904//EN"
 "http://www.w3.org/TR/2001/REC-SVG-20010904/DTD/svg10.dtd">
<svg version="1.0" xmlns="http://www.w3.org/2000/svg"
 width="512.000000pt" height="512.000000pt" viewBox="0 0 512.000000 512.000000"
 preserveAspectRatio="xMidYMid meet">
<metadata>
Created by potrace 1.14, written by Peter Selinger 2001-2017
</metadata>
<g transform="translate(0.000000,512.000000) scale(0.100000,-0.100000)"
fill="#000000" stroke="none">
<path d="M511 3338 c-72 -27 -142 -97 -169 -169 -20 -51 -21 -75 -21 -491 l-1
-438 165 -82 c91 -46 165 -88 165 -94 0 -6 16 -43 35 -82 43 -84 103 -142 194
-185 112 -53 279 -42 372 24 26 18 55 19 829 19 l802 0 239 80 c131 44 246 80
256 80 11 0 28 -19 45 -49 33 -59 115 -130 188 -161 67 -28 181 -35 258 -14
133 35 269 179 281 297 1 4 21 7 46 7 l45 0 0 -165 c0 -180 8 -217 52 -229 29
-7 506 -8 535 0 34 9 56 50 48 90 -10 58 -35 64 -270 64 l-205 0 0 120 0 120
165 0 c175 0 206 6 224 47 16 35 13 120 -5 159 -20 43 -53 55 -264 94 -431 81
-512 100 -585 136 -60 30 -85 36 -156 40 -95 5 -179 13 -189 19 -3 2 -33 7
-65 10 -33 4 -62 9 -65 10 -32 19 -336 27 -495 13 -108 -9 -351 -43 -386 -54
-13 -3 -19 9 -32 59 -46 187 -148 283 -309 291 -29 1 -70 -2 -92 -6 -21 -5
-40 -7 -43 -5 -2 3 -6 26 -10 53 -3 27 -7 56 -9 64 -1 8 -3 19 -3 23 -1 8 -49
5 -156 -9 -66 -9 -229 -52 -322 -86 -180 -65 -391 -182 -547 -302 -43 -34 -88
-68 -100 -77 -11 -9 -33 -19 -48 -23 l-28 -6 0 138 c0 251 52 352 189 369 l51
6 0 159 0 158 -277 -1 c-255 -1 -283 -2 -332 -21z"/>
</g>
</svg>
